<?xml version="1.0" standalone="no"?><!DOCTYPE svg PUBLIC "-//W3C//DTD SVG 1.1//EN" "http://www.w3.org/Graphics/SVG/1.1/DTD/svg11.dtd"><svg t="1752558074142" class="icon" viewBox="0 0 1024 1024" version="1.1" xmlns="http://www.w3.org/2000/svg" p-id="2345" xmlns:xlink="http://www.w3.org/1999/xlink" width="200" height="200"><path d="M506.8288 251.7504L285.2352 377.3952c-3.2768 1.8944-5.3248 5.376-5.3248 9.1648v250.9312c0 3.7888 2.048 7.2704 5.3248 9.1648l221.5936 125.6448c3.2256 1.8432 7.168 1.8432 10.3936 0l221.5936-125.6448c3.2768-1.8944 5.3248-5.376 5.3248-9.1648V386.56c0-3.7888-2.048-7.2704-5.3248-9.1648l-221.5936-125.6448c-3.2768-1.8432-7.2192-1.8432-10.3936 0z" fill="#1075F7" p-id="2346"></path><path d="M744.0896 380.416L512 512 279.9104 380.416 512 248.832z" fill="#1075F7" p-id="2347"></path><path d="M512 775.168l232.0896-131.584V380.416L512 512z" fill="#0C6EC6" p-id="2348"></path><path d="M512 775.168l-232.0896-131.584V380.416L512 512z" fill="#2287F4" p-id="2349"></path><path d="M988.0576 1023.8976H35.9424c-19.8144 0-35.84-16.0256-35.84-35.84V35.9424c0-19.8144 16.0256-35.84 35.84-35.84h952.1152c19.8144 0 35.84 16.0256 35.84 35.84v952.1152c0 19.8144-16.0256 35.84-35.84 35.84z m-916.2752-71.68h880.4352V71.7824H71.7824v880.4352z" fill="#1075F7" p-id="2350"></path><path d="M878.7456 878.7456v-153.9072l-153.9072 153.9072h153.9072M145.2544 145.2544h153.9072L145.2544 299.1616V145.2544" fill="#CFE3FD" p-id="2351"></path><path d="M145.2544 878.7456h153.9072l-153.9072-153.9072v153.9072M878.7456 145.2544v153.9072l-153.9072-153.9072h153.9072" fill="#CFE3FD" p-id="2352"></path></svg>