<svg t="1745632194678" class="icon" viewBox="0 0 1024 1024" version="1.1" xmlns="http://www.w3.org/2000/svg" p-id="1656" width="48" height="48">
<!--    <path d="M731.4 287.2l-143.6 72c-13.2-37.8-35.6-71.6-64.4-98.2l156.2-78c5.4 40.4 24.2 76.6 51.8 104.2zM741 644.4c-27.6 27.6-46.4 64.2-52.2 104.6l-156.2-78c29-26.8 51.2-60.6 64.4-98.6l144 72z" fill="#CDD6E0" p-id="1657"></path>-->
    <path d="M826.2 182.8m-149.8 0a149.8 149.8 0 1 0 299.6 0 149.8 149.8 0 1 0-299.6 0Z" fill="#C4EF59" p-id="1658"></path>
<!--    <path d="M826.2 183m-114.6 0a114.6 114.6 0 1 0 229.2 0 114.6 114.6 0 1 0-229.2 0Z" fill="#8DC81B" p-id="1659"></path>-->
    <path d="M842 764.8m-162 0a162 162 0 1 0 324 0 162 162 0 1 0-324 0Z" fill="#FF7058" p-id="1660"></path>
<!--    <path d="M845.4 761.2m-114 0a114 114 0 1 0 228 0 114 114 0 1 0-228 0Z" fill="#F1543F" p-id="1661"></path>-->
    <path d="M8.4 467.6c0 169.8 137.8 307.6 307.6 307.6s307.6-137.8 307.6-307.6S486 160 316 160 8.4 297.6 8.4 467.6z" fill="#007AFF" p-id="1662"></path>

</svg>