<?xml version="1.0" standalone="no"?><!DOCTYPE svg PUBLIC "-//W3C//DTD SVG 1.1//EN" "http://www.w3.org/Graphics/SVG/1.1/DTD/svg11.dtd"><svg t="1763295356591" class="icon" viewBox="0 0 1024 1024" version="1.1" xmlns="http://www.w3.org/2000/svg" p-id="3390" xmlns:xlink="http://www.w3.org/1999/xlink" width="200" height="200"><path d="M512 1024C354.963525 1024 60.745763 796.897627 60.745763 581.666712V199.697356a45.125424 45.125424 0 0 1 45.125423-45.125424c1.805017 0 101.080949-1.683525 203.966916-40.664949 106.496-40.682305 175.086644-86.432542 175.086644-88.133424a47.728814 47.728814 0 0 1 54.150508 0s68.590644 47.451119 175.086644 88.133424C817.047864 152.888407 918.128814 154.571932 918.128814 154.571932a45.125424 45.125424 0 0 1 45.125423 45.125424v381.969356C963.254237 796.897627 669.036475 1024 512 1024z" fill="#13E9A7" p-id="3391"></path><path d="M545.271322 31.032407l3.002576 1.87444 0.64217 0.433899c7.237424 4.824949 75.290034 49.290847 177.811525 87.699525 12.218576 4.547254 24.419797 8.573831 36.430102 12.149153A414.80678 414.80678 0 0 1 807.050847 319.557424c0 230.052881-186.489492 416.542373-416.542372 416.542373-134.213424 0-253.587525-63.470644-329.762712-162.034983V207.698441a45.99322 45.99322 0 0 1 43.077423-45.889085l2.915797-0.104136h0.572746c8.504407-0.173559 106.200949-3.072 207.31661-40.664949C423.172339 80.357966 493.082034 34.607729 493.082034 32.906847a49.290847 49.290847 0 0 1 52.189288-1.87444z" fill="#2AF3A1" p-id="3392"></path><path d="M462.622373 63.713627l2.863729 1.544678s7.931661 4.65139 22.475932 11.975593l5.397695 2.69017c14.440136 7.115932 34.087051 16.227797 57.968813 25.860339A302.097356 302.097356 0 0 1 598.779661 268.84339c0 167.745085-135.983729 303.728814-303.728814 303.728813A303.104 303.104 0 0 1 60.745763 462.101695V195.774915a38.183051 38.183051 0 0 1 35.458169-38.096271L98.928814 157.591864h0.607457c7.792814-0.138847 88.480542-2.360407 171.997288-29.157966 54.844746-17.755119 97.800678-36.846644 123.036204-49.342915l5.137356-2.586034c12.947525-6.595254 19.959322-10.830102 19.959322-11.246644a45.472542 45.472542 0 0 1 42.955932-1.544678z" fill="#51FAB5" p-id="3393"></path><path d="M407.864407 228.056949c0 105.437288-85.46061 190.915254-190.915254 190.915254a190.689627 190.689627 0 0 1-156.20339-81.173695v-149.399864A31.240678 31.240678 0 0 1 89.452475 157.244746l2.568678-0.104136h0.607457c7.029153-0.121492 72.686644-1.631458 140.583051-18.744407 73.745356-18.744407 121.231186-39.831864 121.231186-40.612881l1.527322-0.642169A190.255729 190.255729 0 0 1 407.864407 228.056949z" fill="#86FFCE" p-id="3394"></path><path d="M503.322034 312.40678C614.4 312.40678 702.915254 402.484068 702.915254 512S612.664407 711.59322 503.322034 711.59322 303.728814 621.515932 303.728814 512 392.244068 312.40678 503.322034 312.40678z m0.156203 83.169627c-64.616136 0-115.764068 52.050441-115.764068 116.423593 0 64.390508 52.501695 116.423593 117.100475 116.423593 64.616136 0 115.764068-52.050441 115.764068-116.423593 0-64.390508-52.501695-116.423593-117.100475-116.423593z m84.315119 238.661424a42.45261 42.45261 0 0 1 59.582915 7.324203l41.827797 53.508339a42.45261 42.45261 0 0 1-66.907119 52.276068l-41.827796-53.525695a42.45261 42.45261 0 0 1 7.324203-59.582915z" fill="#FFFA06" p-id="3395"></path></svg>