<?xml version="1.0" standalone="no"?><!DOCTYPE svg PUBLIC "-//W3C//DTD SVG 1.1//EN" "http://www.w3.org/Graphics/SVG/1.1/DTD/svg11.dtd"><svg t="1748781630435" class="icon" viewBox="0 0 1024 1024" version="1.1" xmlns="http://www.w3.org/2000/svg" p-id="1452" xmlns:xlink="http://www.w3.org/1999/xlink" width="48" height="48"><path d="M908.54857811 172.10121914H342.05060956C245.74595543 172.10121914 172.10121914 245.74595543 172.10121914 342.05060956v566.49796855H115.45142189c-62.31477604 0-113.29959317-50.98481714-113.29959319-113.29959449V115.45142189c0-62.31477604 50.98481714-113.29959317 113.29959319-113.29959319h679.79756173c62.31477604 0 113.29959317 50.98481714 113.29959449 113.29959319v56.64979725zM228.75101638 342.05060956c0-62.31477604 50.98481714-113.29959317 113.29959318-113.29959318h566.49796855c62.31477604 0 113.29959317 50.98481714 113.29959319 113.29959318v566.49796855c0 62.31477604-50.98481714 113.29959317-113.29959319 113.29959319H342.05060956c-62.31477604 0-113.29959317-50.98481714-113.29959318-113.29959319V342.05060956z m56.64979595 0v566.49796855c0 33.98987807 22.65991918 56.64979723 56.64979723 56.64979589h566.49796855c33.98987807 0 56.64979723-22.65991918 56.64979589-56.64979589V342.05060956c0-33.98987807-22.65991918-56.64979723-56.64979589-56.64979723H342.05060956c-33.98987807 0-56.64979723 22.65991918-56.64979723 56.64979723z m407.87853699 288.91396374l113.29959454 113.29959316-62.3147774 62.3147774-113.29959316-113.29959454-113.2995932 113.29959454-62.31477733-62.3147774 113.29959446-113.29959316-113.29959446-113.2995932 62.31477733-62.31477733 113.2995932 113.29959446 113.29959316-113.29959446 62.3147774 62.31477733-113.29959454 113.2995932z" fill="#009B4C" p-id="1453"></path></svg>