<?xml version="1.0" standalone="no"?><!DOCTYPE svg PUBLIC "-//W3C//DTD SVG 1.1//EN" "http://www.w3.org/Graphics/SVG/1.1/DTD/svg11.dtd"><svg t="1755684243366" class="icon" viewBox="0 0 1024 1024" version="1.1" xmlns="http://www.w3.org/2000/svg" p-id="4549" xmlns:xlink="http://www.w3.org/1999/xlink" width="200" height="200"><path d="M494.933333 170.666667h-85.333333v426.666666h85.333333V170.666667z" fill="#1F54C5" p-id="4550"></path><path d="M499.2 584.533333l-59.733333-59.733333L149.333333 810.666667l59.733334 59.733333 290.133333-285.866667z" fill="#1F54C5" p-id="4551"></path><path d="M409.6 554.666667c0-25.6 17.066667-42.666667 42.666667-42.666667H810.666667c21.333333 0 42.666667 17.066667 42.666666 42.666667 0 21.333333-17.066667 42.666667-42.666666 42.666666h-358.4c-29.866667 0-42.666667-17.066667-42.666667-42.666666zM418.133333 98.133333c17.066667-17.066667 42.666667-17.066667 59.733334 0l89.6 89.6c17.066667 17.066667 17.066667 42.666667 0 59.733334-17.066667 17.066667-42.666667 17.066667-59.733334 0L418.133333 157.866667c-17.066667-17.066667-17.066667-42.666667 0-59.733334z" fill="#1F54C5" p-id="4552"></path><path d="M477.866667 98.133333c17.066667 17.066667 17.066667 42.666667 0 59.733334L388.266667 247.466667c-17.066667 17.066667-42.666667 17.066667-59.733334 0-17.066667-17.066667-17.066667-42.666667 0-59.733334l89.6-89.6c17.066667-17.066667 42.666667-17.066667 59.733334 0zM925.866667 524.8c17.066667 17.066667 17.066667 42.666667 0 59.733333l-89.6 89.6c-17.066667 17.066667-42.666667 17.066667-59.733334 0-17.066667-17.066667-17.066667-42.666667 0-59.733333l89.6-89.6c17.066667-17.066667 42.666667-17.066667 59.733334 0z" fill="#1F54C5" p-id="4553"></path><path d="M925.866667 584.533333c-17.066667 17.066667-42.666667 17.066667-59.733334 0l-89.6-89.6c-17.066667-17.066667-17.066667-42.666667 0-59.733333 17.066667-17.066667 42.666667-17.066667 59.733334 0l89.6 89.6c17.066667 17.066667 17.066667 42.666667 0 59.733333zM170.666667 896c-25.6 0-42.666667-17.066667-42.666667-42.666667v-128c0-25.6 17.066667-42.666667 42.666667-42.666666s42.666667 17.066667 42.666666 42.666666v128c0 25.6-17.066667 42.666667-42.666666 42.666667z" fill="#1F54C5" p-id="4554"></path><path d="M128 853.333333c0-25.6 17.066667-42.666667 46.933333-42.666666h140.8c29.866667 0 46.933333 17.066667 46.933334 42.666666s-17.066667 42.666667-46.933334 42.666667H174.933333c-29.866667 0-46.933333-17.066667-46.933333-42.666667z" fill="#1F54C5" p-id="4555"></path></svg>