<?xml version="1.0" standalone="no"?><!DOCTYPE svg PUBLIC "-//W3C//DTD SVG 1.1//EN" "http://www.w3.org/Graphics/SVG/1.1/DTD/svg11.dtd"><svg t="1757043333780" class="icon" viewBox="0 0 1024 1024" version="1.1" xmlns="http://www.w3.org/2000/svg" p-id="6661" xmlns:xlink="http://www.w3.org/1999/xlink" width="48" height="48"><path d="M109.93664 620.07296v200.21248c1.52064 105.09312 158.4896 190.11584 402.06848 190.11584s400.43008-85.0176 402.06848-190.11584v-200.21248H109.93664z" fill="#449296" p-id="6662"></path><path d="M914.06848 619.28448c0 111.49312-157.57312 201.89696-402.06848 201.89696-244.50048 0-402.06848-90.39872-402.06848-201.89696 0-111.488 157.568-201.89696 402.06848-201.89696 244.49536 0 402.06848 90.2912 402.06848 201.89696z" fill="#FFFFFF" p-id="6663"></path><path d="M109.93664 418.17088v177.78688c1.52064 105.09312 158.4896 201.33376 402.06848 201.33376s400.43008-96.24064 402.06848-201.33376V418.17088H109.93664z" fill="#4DA5AA" p-id="6664"></path><path d="M914.06848 417.38752c0 111.488-157.57312 201.89696-402.06848 201.89696-244.50048 0-402.06848-90.40384-402.06848-201.89696S267.50464 215.49056 512 215.49056s402.06848 90.29632 402.06848 201.89696z" fill="#FFFFFF" p-id="6665"></path><path d="M109.93664 216.27904v177.78176c1.52064 105.09312 158.4896 201.33376 402.06848 201.33376s400.43008-96.24064 402.06848-201.33376V216.27904H109.93664z" fill="#58BAB7" p-id="6666"></path><path d="M914.06848 215.49056c0 111.49312-157.57312 201.90208-402.06848 201.90208-244.50048 0-402.06848-90.40896-402.06848-201.90208 0-111.488 157.568-201.89696 402.06848-201.89696 244.49536 0 402.06848 90.29632 402.06848 201.89696z" fill="#67DCE8" p-id="6667"></path></svg>