<svg xmlns="http://www.w3.org/2000/svg" viewBox="0 0 128 128" width="128" height="128">
  <defs>
    <linearGradient id="bg" x1="0" y1="0" x2="1" y2="1">
      <stop offset="0" stop-color="#eef7ff"/>
      <stop offset="1" stop-color="#dff0ff"/>
    </linearGradient>
  </defs>
  <rect x="10" y="10" width="90" height="90" rx="18" fill="url(#bg)" stroke="#2b6de5" stroke-width="4"/>
  <line x1="24" y1="84" x2="84" y2="84" stroke="#1f2937" stroke-width="4" stroke-linecap="round"/>
  <line x1="24" y1="84" x2="24" y2="30" stroke="#1f2937" stroke-width="4" stroke-linecap="round"/>

  <rect x="30" y="68" width="8" height="16" rx="2" fill="#5aa6ff"/>
  <rect x="42" y="58" width="8" height="26" rx="2" fill="#4d97ff"/>
  <rect x="54" y="49" width="8" height="35" rx="2" fill="#3f88ff"/>
  <rect x="66" y="60" width="8" height="24" rx="2" fill="#2f78ff"/>

  <path d="M24 76 C36 44, 72 44, 84 76" fill="none" stroke="#ff8a1f" stroke-width="4.5" stroke-linecap="round"/>

  <circle cx="90" cy="90" r="20" fill="#ffffff" stroke="#1f2937" stroke-width="5"/>
  <line x1="104" y1="104" x2="117" y2="117" stroke="#1f2937" stroke-width="6" stroke-linecap="round"/>
  <circle cx="84" cy="86" r="3.8" fill="#18a957"/>
  <circle cx="96" cy="86" r="3.8" fill="#18a957"/>
  <circle cx="90" cy="95" r="3.8" fill="#18a957"/>
</svg>
