<?xml version="1.0" standalone="no"?><!DOCTYPE svg PUBLIC "-//W3C//DTD SVG 1.1//EN" "http://www.w3.org/Graphics/SVG/1.1/DTD/svg11.dtd"><svg t="1744811693796" class="icon" viewBox="0 0 1280 1024" version="1.1" xmlns="http://www.w3.org/2000/svg" p-id="8909" xmlns:xlink="http://www.w3.org/1999/xlink" width="60" height="48"><path d="M1201.056 16.896c9.6 9.6 9.6 28.8-3.2 38.4l-1056 960c-9.6 9.6-25.6 9.6-38.4-3.2-9.6-9.6-9.6-28.8 3.2-38.4l1056-960c12.8-9.6 28.8-6.4 38.4 3.2" fill="#364657" p-id="8910"></path><path d="M387.2 707.2c-35.2-51.2-57.6-115.2-57.6-185.6 0-176 137.6-316.8 307.2-316.8 80 0 153.6 32 208 86.4l102.4-92.8c-89.6-38.4-195.2-64-310.4-64C272 137.6 0 393.6 0 521.6c0 80 102.4 208 268.8 294.4l118.4-108.8z" fill="#364657" p-id="8911"></path><path d="M1019.744 234.24l-128 115.2c32 51.2 51.2 108.8 51.2 172.8 0 176-137.6 316.8-307.2 316.8-76.8 0-144-28.8-198.4-76.8l-96 86.4c86.4 35.2 185.6 57.6 294.4 57.6 374.4 0 636.8-262.4 636.8-387.2 0-73.6-96-198.4-252.8-284.8" fill="#364657" p-id="8912"></path><path d="M441.6 521.6c0 41.6 12.8 76.8 32 108.8l288-262.4c-35.2-28.8-76.8-48-124.8-48-108.8 0-195.2 89.6-195.2 201.6M832 521.6c0-35.2-9.6-67.2-22.4-96l-284.8 259.2c32 22.4 70.4 38.4 112 38.4 105.6 0 195.2-89.6 195.2-201.6" fill="#364657" p-id="8913"></path></svg>