<?xml version="1.0" standalone="no"?><!DOCTYPE svg PUBLIC "-//W3C//DTD SVG 1.1//EN" "http://www.w3.org/Graphics/SVG/1.1/DTD/svg11.dtd"><svg t="1744811699497" class="icon" viewBox="0 0 1228 1024" version="1.1" xmlns="http://www.w3.org/2000/svg" p-id="9070" xmlns:xlink="http://www.w3.org/1999/xlink" width="57.5625" height="48"><path d="M614.4 96.768a658.2272 658.2272 0 0 0-614.4 418.9184 658.2272 658.2272 0 0 0 614.4 419.0208 658.1248 658.1248 0 0 0 614.4-419.0208A658.1248 658.1248 0 0 0 614.4 96.768m0 698.1632a276.48 276.48 0 0 1-279.2448-279.2448A276.48 276.48 0 0 1 614.4 236.544a276.48 276.48 0 0 1 279.2448 279.2448A276.48 276.48 0 0 1 614.4 794.9312M614.4 348.16c-94.9248 0-167.6288 72.704-167.6288 167.5264 0 94.9248 72.704 167.6288 167.6288 167.6288 95.0272 0 167.6288-72.704 167.6288-167.6288S709.3248 348.16 614.4 348.16" fill="#575757" p-id="9071"></path></svg>